<?xml version="1.0" encoding="utf-8"?>
<!-- Generator: Adobe Illustrator 15.0.2, SVG Export Plug-In . SVG Version: 6.00 Build 0)  -->
<!DOCTYPE svg PUBLIC "-//W3C//DTD SVG 1.1//EN" "http://www.w3.org/Graphics/SVG/1.1/DTD/svg11.dtd">
<svg version="1.1" id="weather-fog" xmlns="http://www.w3.org/2000/svg" xmlns:xlink="http://www.w3.org/1999/xlink" x="0px"
	 y="0px" width="120px" height="120px" viewBox="0 0 120 120" enable-background="new 0 0 120 120" xml:space="preserve">
<g>
	<path d="M28.83,59.75c0.78-0.9,0.92-2.74,0.92-2.74c1.38-13.13,12.41-23.04,25.64-23.04c8.25,0,15.8,3.67,20.65,10.21
		c0.11,0.14,0.21,0.29,0.32,0.44c0.22,0.31,0.43,0.62,0.64,0.94c0.12,0.18,0.25,0.37,0.37,0.55c1.05,1.66,3.1,2.38,4.95,1.75
		c1.71-0.58,3.38-0.79,4.9-0.83c8.3,0.03,15.38,5.34,18.05,12.73h8.9c-2.95-12.19-13.94-21.28-27.02-21.28
		c-1.52,0-3.04,0.12-4.53,0.36C76.13,30.37,66.16,25.4,55.39,25.4c-16.29,0-30.07,11.27-33.51,26.81
		c-6.13,0.45-11.57,3.29-15.27,7.54H28.83z"/>
	<path d="M110.72,69.85H9.27C6.91,69.85,5,71.77,5,74.13c0,2.36,1.91,4.27,4.27,4.27h55.24h46.21c2.36,0,4.28-1.91,4.28-4.28
		C115,71.77,113.09,69.85,110.72,69.85z"/>
	<path d="M110.72,86.05H9.62c-2.36,0-4.27,1.91-4.27,4.28c0,2.36,1.91,4.27,4.27,4.27h101.1c2.36,0,4.28-1.91,4.28-4.28
		C115,87.96,113.09,86.05,110.72,86.05z"/>
</g>
</svg>
