<?xml version="1.0" encoding="utf-8"?>
<!-- Generator: Adobe Illustrator 15.0.2, SVG Export Plug-In . SVG Version: 6.00 Build 0)  -->
<!DOCTYPE svg PUBLIC "-//W3C//DTD SVG 1.1//EN" "http://www.w3.org/Graphics/SVG/1.1/DTD/svg11.dtd">
<svg version="1.1" id="weather-rain" xmlns="http://www.w3.org/2000/svg" xmlns:xlink="http://www.w3.org/1999/xlink" x="0px"
	 y="0px" width="120px" height="120px" viewBox="0 0 120 120" enable-background="new 0 0 120 120" xml:space="preserve">
<g>
	<path d="M77.51,83.31c0,1.88-1.52,3.4-3.4,3.4l0,0c-1.88,0-3.4-1.52-3.4-3.4V76.4c0-1.88,1.52-3.4,3.4-3.4l0,0
		c1.88,0,3.4,1.52,3.4,3.4V83.31z"/>
	<path d="M77.51,101.69c0,1.88-1.52,3.4-3.4,3.4l0,0c-1.88,0-3.4-1.52-3.4-3.4v-6.91c0-1.87,1.52-3.4,3.4-3.4l0,0
		c1.88,0,3.4,1.53,3.4,3.4V101.69z"/>
	<g>
		<path d="M49.29,83.58c0,1.88-1.52,3.4-3.4,3.4l0,0c-1.88,0-3.4-1.52-3.4-3.4v-6.91c0-1.88,1.53-3.4,3.4-3.4l0,0
			c1.88,0,3.4,1.53,3.4,3.4V83.58z"/>
		<path d="M49.29,101.97c0,1.88-1.52,3.4-3.4,3.4l0,0c-1.88,0-3.4-1.52-3.4-3.4v-6.91c0-1.88,1.53-3.4,3.4-3.4l0,0
			c1.88,0,3.4,1.52,3.4,3.4V101.97z"/>
	</g>
	<g>
		<path d="M63.4,83.58c0,1.88-1.52,3.4-3.4,3.4l0,0c-1.88,0-3.4-1.52-3.4-3.4v-6.91c0-1.88,1.52-3.4,3.4-3.4l0,0
			c1.88,0,3.4,1.53,3.4,3.4V83.58z"/>
		<path d="M63.4,101.97c0,1.88-1.52,3.4-3.4,3.4l0,0c-1.88,0-3.4-1.52-3.4-3.4v-6.91c0-1.88,1.52-3.4,3.4-3.4l0,0
			c1.88,0,3.4,1.52,3.4,3.4V101.97z"/>
	</g>
	<path d="M88.03,27.31c-1.48,0-2.95,0.12-4.4,0.35c-6.29-8.2-15.96-13.03-26.41-13.03c-15.8,0-29.17,10.93-32.5,26.01
		C13.7,41.46,5,50.18,5,60.84c0,11.32,9.59,20.43,21.38,20.43h0.01h4.14v-8.11l-4.15,0.01c-7.22,0-13.09-5.49-13.09-12.23
		c0-6.63,5.88-12.03,13.12-12.03c0.47,0,0.95,0.02,1.42,0.07c0,0,2.39,0.15,3.5-0.89c0.87-0.81,1.02-2.8,1.02-2.8
		c1.35-12.74,12.04-22.35,24.87-22.35c8,0,15.33,3.56,20.03,9.9c0.1,0.14,0.21,0.29,0.31,0.43c0.21,0.3,0.42,0.6,0.63,0.91
		c0.12,0.18,0.24,0.35,0.35,0.54c1.02,1.6,3.01,2.3,4.81,1.69c1.65-0.56,3.28-0.77,4.75-0.81c10.27,0.03,18.62,8.41,18.62,18.69
		c0,7.82-2.92,13.14-8.92,16.25c-1.75,0.91-3.53,1.49-5.08,1.87v8.41c2.41-0.42,5.49-1.21,8.57-2.77
		c6.26-3.14,13.72-9.81,13.72-23.77C115,39.41,102.9,27.31,88.03,27.31z"/>
</g>
</svg>
