<?xml version="1.0" encoding="utf-8"?>
<!-- Generator: Adobe Illustrator 15.0.2, SVG Export Plug-In . SVG Version: 6.00 Build 0)  -->
<!DOCTYPE svg PUBLIC "-//W3C//DTD SVG 1.1//EN" "http://www.w3.org/Graphics/SVG/1.1/DTD/svg11.dtd">
<svg version="1.1" id="weather-blustery" xmlns="http://www.w3.org/2000/svg" xmlns:xlink="http://www.w3.org/1999/xlink" x="0px"
	 y="0px" width="120px" height="120px" viewBox="0 0 120 120" enable-background="new 0 0 120 120" xml:space="preserve">
<g>
	<path d="M80.78,80.2c-0.12,0-0.24,0-0.36,0.02h-28.6v7.43l28.79-0.01c2.34,0.36,4.14,2.39,4.14,4.83c0,2.7-2.19,4.89-4.89,4.89
		c-2.05,0-3.72,1.67-3.72,3.72c0,2.05,1.67,3.72,3.72,3.72c6.8,0,12.33-5.53,12.33-12.33C92.19,85.67,87.57,80.2,80.78,80.2z"/>
	<path d="M102.67,67.84h-4.6c0.02-0.02,0.03-0.04,0.05-0.06c-0.06,0.03-0.12,0.06-0.17,0.08c3.44-3.56,6.17-8.9,6.17-16.92
		c0-13.41-10.9-24.31-24.3-24.31c-1.33,0-2.66,0.11-3.97,0.32c-5.66-7.39-14.38-11.74-23.8-11.74c-14.24,0-26.29,9.85-29.29,23.44
		C12.84,39.38,5,47.24,5,56.85c0,10.19,8.64,18.41,19.27,18.41h0l50.94,0.04l-0.02,0.01l27.47-0.03c2.7,0,4.89,2.19,4.89,4.89
		c0,2.69-2.19,4.89-4.89,4.89c-2.06,0-3.72,1.67-3.72,3.72s1.66,3.72,3.72,3.72c6.8,0,12.33-5.53,12.33-12.33
		C115,73.37,109.47,67.84,102.67,67.84z M24.26,67.96c-6.51,0-11.8-4.95-11.8-11.03c0-5.98,5.3-10.84,11.82-10.84
		c0.43,0,0.85,0.02,1.28,0.06c0,0,2.15,0.13,3.16-0.8c0.78-0.73,0.92-2.52,0.92-2.52C30.85,31.36,40.49,22.7,52.05,22.7
		c7.21,0,13.81,3.2,18.05,8.92c0.09,0.13,0.18,0.26,0.27,0.39c0.19,0.27,0.38,0.54,0.56,0.82c0.11,0.16,0.22,0.32,0.32,0.48
		c0.92,1.44,2.71,2.08,4.33,1.53c1.48-0.51,2.95-0.69,4.28-0.73c9.26,0.03,16.78,7.57,16.78,16.84c0,5.61-1.67,9.78-5.08,12.67
		c0.01-0.2,0.02-0.4,0.02-0.59c0-6.8-5.53-12.33-12.33-12.33c-2.05,0-3.72,1.67-3.72,3.72c0,2.06,1.67,3.72,3.72,3.72
		c2.69,0,4.89,2.19,4.89,4.89c0,2.44-1.8,4.47-4.15,4.82L24.26,67.96z"/>
</g>
</svg>
