<?xml version="1.0" encoding="utf-8"?>
<!-- Generator: Adobe Illustrator 15.0.2, SVG Export Plug-In . SVG Version: 6.00 Build 0)  -->
<!DOCTYPE svg PUBLIC "-//W3C//DTD SVG 1.1//EN" "http://www.w3.org/Graphics/SVG/1.1/DTD/svg11.dtd">
<svg version="1.1" id="weather-drizle" xmlns="http://www.w3.org/2000/svg" xmlns:xlink="http://www.w3.org/1999/xlink" x="0px"
	 y="0px" width="120px" height="120px" viewBox="0 0 120 120" enable-background="new 0 0 120 120" xml:space="preserve">
<g>
	<g>
		<path d="M46.484,73.501L46.484,73.501c-0.268-0.442-0.741-0.741-1.288-0.741c-0.545,0-1.019,0.299-1.277,0.741h-0.01l-2.214,4.119
			c0,1.938,1.565,3.503,3.501,3.503s3.501-1.565,3.501-3.503L46.484,73.501z"/>
		<path d="M46.484,85.85L46.484,85.85c-0.268-0.442-0.741-0.741-1.288-0.741c-0.545,0-1.019,0.299-1.277,0.741h-0.01l-2.214,4.12
			c0,1.936,1.565,3.502,3.501,3.502s3.501-1.566,3.501-3.502L46.484,85.85z"/>
	</g>
	<g>
		<path d="M62.825,73.501L62.825,73.501c-0.258-0.442-0.741-0.741-1.288-0.741c-0.545,0-1.019,0.299-1.276,0.741H60.25l-2.214,4.119
			c0,1.938,1.565,3.503,3.501,3.503c1.938,0,3.503-1.565,3.503-3.503L62.825,73.501z"/>
		<path d="M62.825,98.208L62.825,98.208c-0.258-0.442-0.741-0.741-1.288-0.741c-0.545,0-1.019,0.299-1.276,0.741H60.25l-2.214,4.11
			c0,1.936,1.565,3.502,3.501,3.502c1.938,0,3.503-1.566,3.503-3.502L62.825,98.208z"/>
		<path d="M62.825,85.85L62.825,85.85c-0.258-0.442-0.741-0.741-1.288-0.741c-0.545,0-1.019,0.299-1.276,0.741H60.25l-2.214,4.12
			c0,1.936,1.565,3.502,3.501,3.502c1.938,0,3.503-1.566,3.503-3.502L62.825,85.85z"/>
	</g>
	<g>
		<path d="M79.178,73.501L79.178,73.501c-0.268-0.442-0.743-0.741-1.288-0.741c-0.547,0-1.02,0.299-1.277,0.741h-0.01l-2.225,4.119
			c0,1.938,1.564,3.503,3.502,3.503c1.935,0,3.5-1.565,3.5-3.503L79.178,73.501z"/>
		<path d="M79.178,85.85L79.178,85.85c-0.268-0.442-0.743-0.741-1.288-0.741c-0.547,0-1.02,0.299-1.277,0.741h-0.01l-2.225,4.12
			c0,1.936,1.564,3.502,3.502,3.502c1.935,0,3.5-1.566,3.5-3.502L79.178,85.85z"/>
	</g>
	<path d="M88.029,26.86c-1.479,0-2.949,0.12-4.399,0.35c-6.28-8.2-15.96-13.03-26.41-13.03c-15.8,0-29.17,10.931-32.5,26.011
		C13.7,41.01,5,49.73,5,60.391c0,11.32,9.59,20.43,21.38,20.43l0,0h4.14v-8.109l-4.15,0.01c-7.22,0-13.09-5.49-13.09-12.23
		c0-6.63,5.89-12.03,13.12-12.03c0.47,0,0.95,0.021,1.42,0.07c0,0,2.39,0.14,3.5-0.891c0.87-0.81,1.02-2.8,1.02-2.8
		c1.35-12.74,12.05-22.35,24.88-22.35c8,0,15.33,3.56,20.03,9.899c0.1,0.141,0.21,0.29,0.311,0.431c0.209,0.3,0.42,0.6,0.619,0.91
		c0.12,0.18,0.24,0.35,0.35,0.539c1.031,1.601,3.011,2.301,4.811,1.69c1.65-0.56,3.27-0.76,4.75-0.81
		c10.27,0.029,18.62,8.409,18.62,18.689c0,7.82-2.92,13.141-8.92,16.25c-1.75,0.91-3.53,1.49-5.08,1.871v8.42
		c2.42-0.41,5.49-1.221,8.569-2.761C107.54,74.471,115,67.79,115,53.83C115,38.96,102.9,26.86,88.029,26.86z"/>
</g>
</svg>
