<?xml version="1.0" encoding="utf-8"?>
<!-- Generator: Adobe Illustrator 15.0.2, SVG Export Plug-In . SVG Version: 6.00 Build 0)  -->
<!DOCTYPE svg PUBLIC "-//W3C//DTD SVG 1.1//EN" "http://www.w3.org/Graphics/SVG/1.1/DTD/svg11.dtd">
<svg version="1.1" id="weather-thunderstorm" xmlns="http://www.w3.org/2000/svg" xmlns:xlink="http://www.w3.org/1999/xlink"
	 x="0px" y="0px" width="120px" height="120px" viewBox="0 0 120 120" enable-background="new 0 0 120 120" xml:space="preserve">
<g>
	<path d="M56.97,70.09H45.06c-1.09,0-2.39,0.72-2.89,1.69l-7.76,14.88c-0.5,0.97-0.03,1.64,1.05,1.64h8.07l-9.03,15.47
		c-0.55,0.94-0.35,1.15,0.46,0.42l20.61-19.71c0.81-0.74,0.58-2.25-0.51-2.25h-8.78l11.36-11.68
		C58.36,69.74,58.06,70.09,56.97,70.09z"/>
	<path d="M70.01,79.11c0,1.66-1.34,3.01-3.01,3.01l0,0c-1.66,0-3-1.35-3-3.01V73c0-1.66,1.34-3.01,3-3.01l0,0
		c1.67,0,3.01,1.35,3.01,3.01V79.11z"/>
	<path d="M70.01,95.36c0,1.66-1.34,3.01-3.01,3.01l0,0c-1.66,0-3-1.35-3-3.01v-6.11c0-1.66,1.34-3.01,3-3.01l0,0
		c1.67,0,3.01,1.35,3.01,3.01V95.36z"/>
	<path d="M110.03,29.05c-3.44-3.56-8.25-5.6-13.18-5.6c-0.81,0-1.62,0.05-2.42,0.16c-4.19-5.2-10.48-8.25-17.26-8.25
		c-6.06,0-11.66,2.58-15.68,6.54c-3.53-1.52-7.39-2.33-11.38-2.33c-13.65,0-25.2,9.44-28.08,22.47C12.51,42.73,5,50.26,5,59.48
		c0,9.77,8.29,17.64,18.47,17.64h0h1.14v-7l-1.14,0c-6.24,0-11.31-4.74-11.31-10.57c0-5.73,5.08-10.39,11.33-10.39
		c0.41,0,0.82,0.02,1.23,0.06c0,0,2.06,0.12,3.03-0.77c0.75-0.7,0.89-2.42,0.89-2.42c1.16-11.01,10.4-19.31,21.48-19.31
		c6.91,0,13.24,3.07,17.31,8.55c0.09,0.12,0.17,0.25,0.27,0.37c0.18,0.26,0.36,0.52,0.54,0.79c0.1,0.15,0.21,0.31,0.31,0.46
		c0.88,1.39,2.6,1.99,4.15,1.46c1.43-0.48,2.83-0.66,4.1-0.7c8.87,0.03,16.08,7.26,16.08,16.14c0,6.76-2.52,11.35-7.71,14.03
		c-2.08,1.08-4.2,1.62-5.8,1.9v7.19c2.21-0.27,5.51-0.94,8.82-2.59c4.37-2.19,9.41-6.38,11.19-14.26c6.5-0.88,15.21-5.42,15.63-18.3
		C115.15,37.04,113.38,32.52,110.03,29.05z M107.86,41.54c-0.26,7.72-4.65,10.3-7.87,11.16C99.41,40.36,89.2,30.51,76.72,30.51
		c-1.28,0-2.55,0.1-3.8,0.3c-1.48-1.93-3.18-3.64-5.04-5.11c0.01,0,0.02-0.01,0.03-0.02c-0.01,0-0.01-0.01-0.01-0.01
		c2.56-2,5.78-3.18,9.26-3.18c5.17,0,9.92,2.61,12.71,6.98c0.85,1.33,2.46,1.94,3.98,1.52c0.97-0.27,1.98-0.41,3-0.41
		c3.01,0,5.95,1.25,8.05,3.43C106.9,36.08,107.95,38.75,107.86,41.54z"/>
</g>
</svg>
