<?xml version="1.0" encoding="utf-8"?>
<!-- Generator: Adobe Illustrator 15.0.2, SVG Export Plug-In . SVG Version: 6.00 Build 0)  -->
<!DOCTYPE svg PUBLIC "-//W3C//DTD SVG 1.1//EN" "http://www.w3.org/Graphics/SVG/1.1/DTD/svg11.dtd">
<svg version="1.1" id="weather-hurricane" xmlns="http://www.w3.org/2000/svg" xmlns:xlink="http://www.w3.org/1999/xlink" x="0px"
	 y="0px" width="120px" height="120px" viewBox="0 0 120 120" enable-background="new 0 0 120 120" xml:space="preserve">
<g>
	<path d="M95.92,37.76H85.26H58.55H47.89c-2.26,0-4.09,1.83-4.09,4.08c0,2.25,1.83,4.08,4.09,4.08h10.65h26.72h10.66
		c2.25,0,4.08-1.83,4.08-4.08C100,39.59,98.17,37.76,95.92,37.76z"/>
	<path d="M84.8,55.92H64.05h-7.24H36.07c-2.25,0-4.08,1.83-4.08,4.08c0,2.26,1.83,4.08,4.08,4.08h20.74h7.24H84.8
		c2.25,0,4.08-1.83,4.08-4.08C88.88,57.74,87.05,55.92,84.8,55.92z"/>
	<path d="M62.33,74.95H49.57h-2.06H34.74c-2.26,0-4.08,1.83-4.08,4.08c0,2.26,1.83,4.08,4.08,4.08h12.77h2.06h12.77
		c2.26,0,4.08-1.83,4.08-4.08C66.42,76.78,64.59,74.95,62.33,74.95z"/>
	<path d="M50.72,92.22h-2.11h-1.19h-2.11c-2.26,0-4.08,1.83-4.08,4.09c0,2.25,1.83,4.08,4.08,4.08h2.11h1.19h2.11
		c2.25,0,4.08-1.83,4.08-4.08C54.81,94.05,52.98,92.22,50.72,92.22z"/>
	<path d="M67.61,27.77h20.41c2.26,0,4.08-1.83,4.08-4.08s-1.83-4.08-4.08-4.08H67.61h-1.16H24.08c-2.25,0-4.08,1.82-4.08,4.08
		s1.83,4.08,4.08,4.08h42.37H67.61z"/>
</g>
</svg>
