<?xml version="1.0" encoding="utf-8"?>
<!-- Generator: Adobe Illustrator 15.0.2, SVG Export Plug-In . SVG Version: 6.00 Build 0)  -->
<!DOCTYPE svg PUBLIC "-//W3C//DTD SVG 1.1//EN" "http://www.w3.org/Graphics/SVG/1.1/DTD/svg11.dtd">
<svg version="1.1" id="weather-mostlycloudymoon" xmlns="http://www.w3.org/2000/svg" xmlns:xlink="http://www.w3.org/1999/xlink"
	 x="0px" y="0px" width="120px" height="120px" viewBox="0 0 120 120" enable-background="new 0 0 120 120" xml:space="preserve">
<path d="M110.03,52.67c-3.31-3.42-7.88-5.44-12.62-5.58c0.76-2.21,1.16-4.59,1.14-7.06c-0.01-0.93-0.43-1.8-1.15-2.39
	c-0.72-0.58-1.66-0.82-2.57-0.65c-0.5,0.1-0.83,0.28-1.08,0.42c-2.48,1.38-4.54,1.66-5.84,1.66c-2.22,0-4.13-0.81-5.83-2.47
	c-2.77-2.71-3.04-6.8-0.81-12.51c0.16-0.4,0.26-0.67,0.33-0.96c0.22-0.9,0.02-1.85-0.53-2.6c-0.55-0.75-1.41-1.21-2.33-1.26
	c-1.21-0.06-2.4-0.03-3.56,0.1c-5.57,0.63-10.56,3.4-14.05,7.79c-3.49,4.39-5.06,9.88-4.43,15.45c0.05,0.46,0.13,0.92,0.21,1.38
	c-2.2-0.53-4.47-0.81-6.79-0.81c-13.66,0-25.2,9.44-28.08,22.47C12.52,66.36,5,73.89,5,83.1c0,9.77,8.29,17.65,18.47,17.65h0
	l53.21,0c0.24,0,5.85,0.04,11.48-2.78c4.37-2.19,9.41-6.37,11.19-14.26c6.5-0.89,15.2-5.42,15.63-18.31
	C115.15,60.67,113.38,56.15,110.03,52.67z M66.01,31.06c2.08-2.62,4.93-4.42,8.15-5.17c-1.45,6.06-0.15,10.28,1.81,13.13
	c-4.75,0.27-9.17,2.11-12.69,4.92c-0.17-0.66-0.3-1.33-0.38-2.02C62.46,38,63.56,34.15,66.01,31.06z M85.16,91.48
	c-4.12,2.14-8.44,2.19-8.47,2.19l-53.22,0.08c-6.24,0-11.31-4.74-11.31-10.57c0-5.73,5.09-10.39,11.33-10.39
	c0.41,0,0.82,0.02,1.22,0.06c0,0,2.06,0.13,3.03-0.77c0.75-0.69,0.88-2.41,0.88-2.41c1.16-11.01,10.4-19.31,21.48-19.31
	c6.91,0,13.24,3.07,17.3,8.55c0.09,0.12,0.18,0.25,0.26,0.37c0.19,0.26,0.36,0.52,0.54,0.79c0.1,0.15,0.21,0.31,0.31,0.47
	c0.88,1.39,2.6,1.99,4.16,1.46c1.43-0.48,2.83-0.66,4.1-0.7c8.87,0.03,16.08,7.26,16.08,16.14C92.86,84.2,90.34,88.79,85.16,91.48z
	 M107.86,65.17c-0.26,7.72-4.66,10.3-7.88,11.16c-0.58-12.33-10.79-22.2-23.26-22.2c-1.28,0-2.55,0.1-3.8,0.31
	c-1.48-1.93-3.17-3.64-5.04-5.11c0.01-0.01,0.02-0.01,0.03-0.02c0-0.01-0.01-0.01-0.01-0.01c2.56-2,5.78-3.18,9.26-3.18
	c5.17,0,9.93,2.61,12.71,6.98c0.84,1.33,2.46,1.94,3.98,1.52c0.97-0.27,1.98-0.41,2.99-0.41c3.01,0,5.95,1.25,8.05,3.43
	C106.9,59.7,107.95,62.38,107.86,65.17z"/>
</svg>
