<?xml version="1.0" encoding="utf-8"?>
<!-- Generator: Adobe Illustrator 15.0.2, SVG Export Plug-In . SVG Version: 6.00 Build 0)  -->
<!DOCTYPE svg PUBLIC "-//W3C//DTD SVG 1.1//EN" "http://www.w3.org/Graphics/SVG/1.1/DTD/svg11.dtd">
<svg version="1.1" id="weather-cloud" xmlns="http://www.w3.org/2000/svg" xmlns:xlink="http://www.w3.org/1999/xlink" x="0px"
	 y="0px" width="120px" height="120px" viewBox="0 0 120 120" enable-background="new 0 0 120 120" xml:space="preserve">
<g>
	<path d="M88.03,39.35c-1.48,0-2.95,0.12-4.4,0.35c-6.29-8.2-15.96-13.03-26.41-13.03c-15.81,0-29.17,10.93-32.5,26
		C13.7,53.51,5,62.23,5,72.89c0,11.31,9.59,20.43,21.38,20.43h0.01h61.6c0.28,0,6.77,0.05,13.29-3.21
		c6.26-3.14,13.72-9.81,13.72-23.77C115,51.46,102.9,39.35,88.03,39.35z M97.79,82.58c-4.77,2.47-9.76,2.54-9.8,2.54l-61.61,0.09
		c-7.22,0-13.09-5.49-13.09-12.24c0-6.63,5.88-12.03,13.12-12.03c0.47,0,0.95,0.02,1.42,0.07c0,0,2.39,0.14,3.5-0.89
		c0.87-0.81,1.02-2.8,1.02-2.8c1.34-12.74,12.04-22.35,24.87-22.35c8,0,15.33,3.55,20.03,9.9c0.1,0.14,0.21,0.28,0.31,0.43
		c0.21,0.3,0.42,0.6,0.63,0.91c0.12,0.18,0.24,0.35,0.35,0.54c1.02,1.6,3.01,2.3,4.81,1.69c1.65-0.56,3.27-0.76,4.75-0.81
		c10.27,0.03,18.62,8.4,18.62,18.69C106.71,74.16,103.8,79.48,97.79,82.58z"/>
</g>
</svg>
