<?xml version="1.0" encoding="utf-8"?>
<!-- Generator: Adobe Illustrator 15.0.2, SVG Export Plug-In . SVG Version: 6.00 Build 0)  -->
<!DOCTYPE svg PUBLIC "-//W3C//DTD SVG 1.1//EN" "http://www.w3.org/Graphics/SVG/1.1/DTD/svg11.dtd">
<svg version="1.1" id="weather-hot" xmlns="http://www.w3.org/2000/svg" xmlns:xlink="http://www.w3.org/1999/xlink" x="0px"
	 y="0px" width="120px" height="120px" viewBox="0 0 120 120" enable-background="new 0 0 120 120" xml:space="preserve">
<g>
	<path d="M70.22,72.86V20.22C70.22,14.58,65.64,10,60,10c-5.63,0-10.22,4.58-10.22,10.22v52.64c-6.05,3.6-9.75,10.05-9.75,17.16
		C40.03,101.04,48.99,110,60,110c11.01,0,19.97-8.96,19.97-19.98C79.97,82.91,76.27,76.46,70.22,72.86z M60,105.29
		c-8.42,0-15.27-6.85-15.27-15.27c0-5.82,3.24-11.06,8.45-13.66l1.3-0.65V20.22c0-3.04,2.48-5.52,5.52-5.52
		c3.04,0.01,5.52,2.48,5.52,5.52v55.49l1.3,0.65c5.21,2.61,8.45,7.85,8.45,13.66C75.27,98.44,68.42,105.29,60,105.29z"/>
	<path d="M62.22,80.95V24c0-1.23-0.99-2.22-2.22-2.22c-1.23,0-2.22,0.99-2.22,2.22v56.96c-4.05,1-7.06,4.62-7.06,8.98
		c0,5.13,4.15,9.28,9.28,9.28c5.12,0,9.28-4.16,9.28-9.28C69.28,85.58,66.27,81.95,62.22,80.95z"/>
</g>
</svg>
