<?xml version="1.0" encoding="utf-8"?>
<!-- Generator: Adobe Illustrator 15.0.2, SVG Export Plug-In . SVG Version: 6.00 Build 0)  -->
<!DOCTYPE svg PUBLIC "-//W3C//DTD SVG 1.1//EN" "http://www.w3.org/Graphics/SVG/1.1/DTD/svg11.dtd">
<svg version="1.1" id="weather-wind" xmlns="http://www.w3.org/2000/svg" xmlns:xlink="http://www.w3.org/1999/xlink" x="0px"
	 y="0px" width="120px" height="120px" viewBox="0 0 120 120" enable-background="new 0 0 120 120" xml:space="preserve">
<g>
	<g>
		<path d="M76.84,36.13c2.92,0,5.3,2.38,5.3,5.29c0,2.65-1.96,4.84-4.5,5.23H15.75v8.06h62.08c7.37,0,12.36-5.93,12.36-13.29
			c0-7.36-5.99-13.35-13.35-13.35c-2.23,0-4.03,1.8-4.03,4.03C72.81,34.33,74.61,36.13,76.84,36.13z"/>
		<path d="M78.47,65.29c-0.13,0-0.26,0-0.39,0.02H5v8.05l73.29-0.01c2.53,0.39,4.48,2.58,4.48,5.22c0,2.92-2.38,5.29-5.29,5.29
			c-2.23,0-4.03,1.8-4.03,4.03s1.8,4.03,4.03,4.03c7.36,0,13.35-5.99,13.35-13.36C90.83,71.21,85.83,65.29,78.47,65.29z"/>
	</g>
	<path d="M101.65,36.86c-2.22,0-4.03,1.81-4.03,4.03c0,2.23,1.81,4.03,4.03,4.03c2.92,0,5.29,2.37,5.29,5.29
		c0,2.92-2.37,5.29-5.29,5.29H90.83v8.06h10.81c7.36,0,13.35-5.99,13.35-13.35C115,42.86,109.01,36.86,101.65,36.86z"/>
</g>
</svg>
